<svg width="271" height="52" viewBox="0 0 271 52" fill="none" xmlns="http://www.w3.org/2000/svg">
<path fill-rule="evenodd" clip-rule="evenodd" d="M212.936 49.1423C212.793 48.7841 212.721 48.3902 212.721 47.9962L212.685 47.9604C212.685 47.6023 212.757 47.2083 212.9 46.8501C213.043 46.4562 213.258 46.1339 213.545 45.8473C213.831 45.525 214.154 45.3101 214.547 45.1311C214.941 44.952 215.407 44.8804 215.873 44.8804C216.338 44.8804 216.768 44.952 217.162 45.1311C217.556 45.3101 217.878 45.525 218.165 45.8115C218.415 46.098 218.666 46.4562 218.809 46.8143C218.988 47.1725 219.06 47.6023 219.06 47.9604C219.06 48.3185 218.988 48.7125 218.845 49.0706C218.702 49.4646 218.487 49.7869 218.201 50.0734C217.914 50.36 217.592 50.6107 217.198 50.7897C216.804 50.9688 216.338 51.0763 215.873 51.0763C215.407 51.0763 214.977 51.0046 214.583 50.8256C214.189 50.6465 213.867 50.4316 213.58 50.1451C213.294 49.8586 213.079 49.5004 212.936 49.1423ZM214.225 51.3986C214.727 51.6135 215.264 51.7209 215.873 51.7209L215.837 51.6851C216.41 51.6851 216.911 51.5777 217.413 51.3628C217.914 51.1479 218.344 50.8972 218.702 50.539C219.06 50.2167 219.347 49.8227 219.561 49.3572C219.776 48.8916 219.884 48.3902 219.884 47.9246C219.884 47.459 219.776 47.0292 219.597 46.5636C219.382 46.098 219.132 45.7041 218.774 45.3459C218.451 44.9878 218.021 44.7013 217.52 44.4864C217.019 44.2715 216.446 44.1641 215.873 44.1641C215.3 44.1641 214.798 44.2715 214.297 44.4864C213.795 44.7013 213.366 44.952 213.007 45.3101C212.649 45.6325 212.363 46.0264 212.148 46.492C211.933 46.9576 211.826 47.459 211.826 47.9246C211.826 48.3902 211.933 48.8558 212.112 49.3213C212.291 49.7869 212.578 50.1809 212.936 50.539C213.294 50.8972 213.724 51.1837 214.225 51.3986ZM136.723 48.3185H134.001L133.965 48.2827V44.9161H136.615C136.866 44.9161 137.081 44.9878 137.296 45.0594C137.511 45.131 137.726 45.2743 137.869 45.4175C138.012 45.5608 138.119 45.7399 138.227 45.9547C138.334 46.1696 138.37 46.3845 138.37 46.5994C138.37 46.8143 138.334 47.0292 138.263 47.2441C138.191 47.459 138.084 47.638 137.94 47.7813C137.797 47.9604 137.618 48.0678 137.403 48.1752C137.188 48.2827 136.973 48.3185 136.723 48.3185ZM133.141 44.2715V51.6851L133.105 51.7567H133.965V49.0348H136.723C137.081 49.0348 137.439 48.9632 137.726 48.8199C138.048 48.6766 138.299 48.4976 138.513 48.2827C138.728 48.0678 138.907 47.8171 139.015 47.5306C139.122 47.2441 139.194 46.9217 139.194 46.6352C139.194 46.3487 139.158 46.0622 139.015 45.7757C138.872 45.4892 138.693 45.2385 138.478 45.0236C138.263 44.8087 138.012 44.6296 137.69 44.4864C137.403 44.3431 137.045 44.2715 136.687 44.2715H133.141ZM143.062 44.3074V51.6852H148.828V51.0405H143.886V44.3074H143.062ZM157.244 48.82L155.525 45.167L153.77 48.82H157.244ZM155.167 44.3074H155.883L159.429 51.721H158.534L157.423 49.3931H153.591L152.481 51.721H151.586L155.167 44.3074ZM163.906 51.6852V45.6326L169.493 51.6852H170.245V44.3074H169.385V50.4675L163.727 44.3074H163.082V51.6852H163.906ZM180.559 51.0405V51.6852H174.793V44.3074H180.452V44.9521H175.617V47.6023H179.807V48.2112H175.617V51.0405H180.559ZM187.579 44.9521H190.623V44.3074H183.675V44.9521H186.72V51.6852H187.579V44.9521ZM207.062 51.6852V45.6326L203.946 50.3242H203.445L200.329 45.6326V51.6852H199.47V44.3074H200.329L203.696 49.3573L207.026 44.3074H207.886V51.6852H207.062ZM229.518 49.6795C229.518 49.5005 229.482 49.3214 229.41 49.1423C229.339 48.9632 229.231 48.82 229.088 48.6767C228.969 48.558 228.851 48.4885 228.712 48.4071C228.683 48.3902 228.653 48.3728 228.622 48.3544C228.443 48.2828 228.228 48.247 228.049 48.247H224.754V51.0405H227.942C228.157 51.0405 228.372 51.0047 228.551 50.933C228.73 50.8614 228.909 50.754 229.052 50.6107C229.195 50.4675 229.303 50.3242 229.375 50.1451C229.446 49.966 229.482 49.787 229.482 49.6079L229.518 49.6795ZM224.719 44.9162V47.6023H227.655C227.87 47.6023 228.049 47.5665 228.228 47.4949C228.407 47.4232 228.551 47.3158 228.694 47.2084L228.694 47.2083C228.837 47.0651 228.909 46.9218 228.981 46.7786C229.052 46.5995 229.088 46.4562 229.088 46.2772C229.088 46.0981 229.088 45.919 228.981 45.7399C228.909 45.5609 228.801 45.4176 228.694 45.3102C228.587 45.2027 228.408 45.0953 228.264 45.0237C228.085 44.952 227.906 44.9162 227.727 44.9162H224.719ZM230.306 49.7512C230.306 50.0377 230.234 50.2884 230.127 50.5033C229.983 50.754 229.84 50.933 229.625 51.1121C229.41 51.2912 229.16 51.3986 228.873 51.5061C228.587 51.6135 228.264 51.6493 227.942 51.6493H223.895V44.2357H228.014C228.3 44.2357 228.587 44.3074 228.837 44.4148C229.088 44.5223 229.267 44.6655 229.446 44.8446C229.625 45.0237 229.733 45.2385 229.84 45.4534C229.948 45.6683 229.983 45.919 229.983 46.1339C229.983 46.492 229.876 46.8502 229.661 47.1725C229.446 47.4949 229.16 47.7097 228.766 47.853C229.267 47.9963 229.661 48.2111 229.948 48.5693C230.234 48.9274 230.377 49.3214 230.377 49.7512H230.306ZM234.389 44.3074H235.248V51.721H234.389V44.3074ZM239.797 51.6852V44.3074H240.62V51.0405H245.563V51.6852H239.797ZM249.216 44.3074H250.075V51.721H249.216V44.3074ZM260.712 44.9521H257.668V51.6852H256.808V44.9521H253.764V44.3074H260.712V44.9521ZM267.23 48.2828L264.437 44.3074H263.506L266.836 48.9275V51.6852H267.66V48.9275L270.991 44.3074H270.06L267.23 48.2828Z" fill="white"/>
<g clip-path="url(#clip0_1339_33718)">
<path d="M172.997 33.648L157.343 0.0195312H148.826L158.201 25.8075C158.538 26.5732 158.875 27.4307 159.212 28.227C159.702 29.4215 160.161 30.5547 160.498 31.351C160.835 32.1473 160.682 31.8104 160.743 31.9942C161.479 33.6787 163.347 33.6787 163.347 33.648H173.028L169.045 25.3787" fill="url(#paint0_linear_1339_33718)"/>
<path d="M133.141 33.648L148.826 0.0195312H157.343L147.968 25.8075C147.631 26.5732 147.294 27.4307 146.957 28.227C146.467 29.4215 146.007 30.5547 145.67 31.351C145.579 31.596 145.487 31.8104 145.425 31.9942C144.69 33.6787 142.821 33.6787 142.821 33.648H133.141L137.123 25.3787Z" fill="#C8017D"/>
<path fill-rule="evenodd" clip-rule="evenodd" d="M271 33.4642H258.868L249.984 12.5153L241.1 33.4642H229.183L245.052 0.111328H255.131L271 33.4642ZM0 0.478853C14.8275 -0.103061 37.4976 -0.531841 37.3138 16.895C37.5283 34.4136 15.0419 34.383 0 33.7092V0.478853ZM15.3177 25.5318C29.7163 26.2056 29.7163 7.98248 15.3177 8.62565H10.8755V25.5318H15.3177ZM83.5119 0.478748H94.4487V33.7091H83.5119V0.478748ZM41.3883 0.480696L41.3577 0.47884H41.3883V0.480696ZM41.3883 0.480696C43.277 0.593936 45.8716 0.533036 48.7791 0.46479C57.4576 0.261089 68.9241 -0.00805371 72.7282 4.09283C79.1004 9.33006 76.2513 20.0189 68.1329 22.1322L77.5073 33.7092H64.9469L57.0429 23.6329H52.2638V33.7092H41.3883V0.480696ZM59.3712 8.4725C67.0913 7.92121 67.3058 16.8031 59.4325 16.4355H59.4019H52.2332V8.4725H59.3712ZM177.562 0.601369H188.377V25.593H207.279V33.6173H177.562V0.601369ZM224.281 0.295038H213.161V33.6173H224.281V0.295038ZM110.134 0.233728H97.9411L113.871 33.7091H123.981L139.911 0.233728H127.964L119.049 21.2745L110.134 0.233728Z" fill="white"/>
</g>
<defs>
<linearGradient id="paint0_linear_1339_33718" x1="148.213" y1="0.601445" x2="171.947" y2="34.5422" gradientUnits="userSpaceOnUse">
<stop offset="0.2" stop-color="#186BA1"/>
<stop offset="0.3" stop-color="#078FCB"/>
<stop offset="0.4" stop-color="#00A0DF"/>
<stop offset="1" stop-color="#00A0DF"/>
</linearGradient>
<clipPath id="clip0_1339_33718">
<rect width="271" height="33.9418" fill="white"/>
</clipPath>
</defs>
</svg>
